<svg xmlns="http://www.w3.org/2000/svg" xmlns:xlink="http://www.w3.org/1999/xlink" width="17px" height="20px" viewBox="0 0 17 19" version="1.1">
<g>
<path style=" stroke:none;fill-rule:nonzero;fill:rgb(0%,0%,0%);fill-opacity:1;" d="M 3.804688 16.148438 L 0.28125 16.148438 L 0.28125 5.789062 L 3.804688 5.789062 Z M 2.042969 4.378906 C 0.914062 4.378906 0 3.523438 0 2.5 C 0 1.46875 0.914062 0.632812 2.042969 0.632812 C 3.167969 0.632812 4.082031 1.46875 4.082031 2.5 C 4.082031 3.523438 3.167969 4.378906 2.042969 4.378906 Z M 16.996094 16.148438 L 13.480469 16.148438 L 13.480469 11.109375 C 13.480469 9.90625 13.453125 8.363281 11.648438 8.363281 C 9.8125 8.363281 9.53125 9.667969 9.53125 11.019531 L 9.53125 16.148438 L 6.011719 16.148438 L 6.011719 5.789062 L 9.394531 5.789062 L 9.394531 7.203125 L 9.445312 7.203125 C 9.914062 6.386719 11.0625 5.53125 12.777344 5.53125 C 16.347656 5.53125 17 7.675781 17 10.460938 L 17 16.148438 Z M 16.996094 16.148438 "/>
</g>
</svg>
